#!OML:ASF E:\motion texture\Top Level 1\Subject 1\Session 1\male.ASF
:FULLY-SPECIFIED
:DEGREES
724
root -42.7067 17.7292 2.77872 116.733 -82.3675 -111.896
lowerback -3.19314 1.01728 5.16352
upperback -4.71966 1.18673 4.19038
thorax -3.06673 0.413155 1.44758
lowerneck -15.2149 -5.00672 -7.87197
upperneck 15.5686 -6.10623 5.42465
head 7.71687 -2.90384 2.38262
rclavicle 6.01324e-015 -1.82882e-014
rhumerus -20.9154 9.11552 -76.3774
rradius 44.3879
rwrist 5.95143
rhand -12.525 -28.7939
rfingers 7.12502
rthumb 13.551 -58.333
lclavicle 6.01324e-015 -1.82882e-014
lhumerus 22.7615 -32.3779 40.3235
lradius 76.4588
lwrist -14.7794
lhand -11.6335 21.76
lfingers 7.12502
lthumb 14.4102 51.2398
rfemur -2.85885 -3.84631 29.042
rtibia 36.9637
rfoot -9.48514 -14.8659
rtoes -7.13297
lfemur -25.9715 -2.07327 -10.1506
ltibia 17.5768
lfoot -2.06058 3.74474
ltoes -7.72419
725
root -42.8597 17.7284 2.79315 116.981 -82.5505 -112.323
lowerback -3.18091 1.02338 4.96315
upperback -4.7126 1.20008 4.17297
thorax -3.0687 0.427339 1.54069
lowerneck -15.0868 -5.17992 -8.1133
upperneck 15.7312 -6.37382 5.74228
head 7.78614 -3.02084 2.49663
rclavicle -4.96962e-017 -1.59028e-014
rhumerus -21.268 8.80915 -76.4775
rradius 43.7453
rwrist 6.18436
rhand -12.3195 -28.8559
rfingers 7.12502
rthumb 13.7491 -58.3817
lclavicle -4.96962e-017 -1.59028e-014
lhumerus 23.8795 -30.4229 39.715
lradius 76.5779
lwrist -15.1086
lhand -12.0547 21.6729
lfingers 7.12502
lthumb 14.0043 51.1811
rfemur -3.14627 -4.13522 28.6064
rtibia 38.2669
rfoot -8.68366 -15.0386
rtoes -6.90181
lfemur -25.5813 -2.05376 -10.5844
ltibia 17.8998
lfoot -2.05994 3.42839
ltoes -7.24718
726
root -43.0126 17.7285 2.80816 117.181 -82.7454 -112.711
lowerback -3.16369 1.02327 4.7564
upperback -4.701 1.20561 4.15356
thorax -3.06898 0.437987 1.63521
lowerneck -14.9616 -5.34927 -8.35125
upperneck 15.8887 -6.63647 6.04963
head 7.85507 -3.13629 2.60727
rclavicle 3.57812e-015 2.06736e-014
rhumerus -21.6176 8.47627 -76.5808
rradius 43.0645
rwrist 6.43993
rhand -12.1081 -28.9136
rfingers 7.12502
rthumb 13.9529 -58.4254
lclavicle 3.57812e-015 2.06736e-014
lhumerus 24.9824 -28.5775 39.2475
lradius 76.592
lwrist -15.4958
lhand -12.4233 21.5672
lfingers 7.12502
lthumb 13.6491 51.0997
rfemur -3.46808 -4.43602 28.1562
rtibia 39.5889
rfoot -7.84566 -15.2291
rtoes -6.57731
lfemur -25.1643 -2.03349 -11.0345
ltibia 18.2423
lfoot -2.07761 3.11256
ltoes -6.75589
727
root -43.1651 17.7294 2.8236 117.328 -82.9492 -113.055
lowerback -3.14109 1.01828 4.54431
upperback -4.68646 1.20507 4.13236
thorax -3.06938 0.445861 1.73082
lowerneck -14.834 -5.51446 -8.58546
upperneck 16.0392 -6.89429 6.34788
head 7.92202 -3.2502 2.71496
rclavicle 6.75868e-015 -6.04305e-014
rhumerus -21.9671 8.11381 -76.686
rradius 42.3503
rwrist 6.71921
rhand -11.8929 -28.9628
rfingers 7.12502
rthumb 14.1602 -58.4602
lclavicle 6.75868e-015 -6.04305e-014
lhumerus 26.0769 -26.8613 38.9113
lradius 76.5154
lwrist -15.9338
lhand -12.7484 21.4487
lfingers 7.12502
lthumb 13.3357 51.0019
rfemur -3.82507 -4.74356 27.6976
rtibia 40.9238
rfoot -6.98056 -15.4374
rtoes -6.15529
lfemur -24.7206 -2.01401 -11.4933
ltibia 18.5947
lfoot -2.10908 2.80175
ltoes -6.2549
728
root -43.3172 17.7311 2.83939 117.4 -83.163 -113.331
lowerback -3.1146 1.00695 4.32698
upperback -4.66687 1.1963 4.11009
thorax -3.06685 0.449945 1.82821
lowerneck -14.7117 -5.67581 -8.81669
upperneck 16.1845 -7.14656 6.63608
head 7.98875 -3.36219 2.81943
rclavicle 1.02374e-014 -7.95139e-016
rhumerus -22.3098 7.72191 -76.7905
rradius 41.6055
rwrist 7.02457
rhand -11.6752 -29.0001
rfingers 7.12502
rthumb 14.37 -58.4828
lclavicle 1.02374e-014 -7.95139e-016
lhumerus 27.1709 -25.2844 38.6942
lradius 76.3621
lwrist -16.4123
lhand -13.0508 21.3126
lfingers 7.12502
lthumb 13.0442 50.8847
rfemur -4.21632 -5.05864 27.2319
rtibia 42.2641
rfoot -6.09922 -15.6613
rtoes -5.64515
lfemur -24.2502 -1.99898 -11.9601
ltibia 18.9496
lfoot -2.15506 2.49885
ltoes -5.75066
729
root -43.4686 17.7335 2.85546 117.389 -83.3868 -113.529
lowerback -3.08303 0.99012 4.10352
upperback -4.64523 1.18059 4.08614
thorax -3.06509 0.450795 1.92727
lowerneck -14.5881 -5.83262 -9.04263
upperneck 16.3232 -7.39302 6.91302
head 8.05346 -3.47225 2.92006
rclavicle 4.27387e-015 -1.51076e-014
rhumerus -22.6507 7.30044 -76.8932
rradius 40.8351
rwrist 7.35412
rhand -11.4571 -29.0248
rfingers 7.12502
rthumb 14.5801 -58.4924
lclavicle 4.27387e-015 -1.51076e-014
lhumerus 28.2687 -23.8638 38.5876
lradius 76.1469
lwrist -16.9258
lhand -13.336 21.1667
lfingers 7.12502
lthumb 12.7693 50.7562
rfemur -4.64271 -5.37944 26.7616
rtibia 43.6035
rfoot -5.21338 -15.8999
rtoes -5.06073
lfemur -23.7544 -1.9904 -12.4323
ltibia 19.3003
lfoot -2.21771 2.20468
ltoes -5.24957
730
root -43.6193 17.7366 2.87174 117.265 -83.6212 -113.62
lowerback -3.04904 0.967027 3.87425
upperback -4.6201 1.15664 4.06071
thorax -3.06103 0.447779 2.02806
lowerneck -14.4656 -5.98527 -9.26373
upperneck 16.4541 -7.63393 7.18035
head 8.1161 -3.58031 3.01739
rclavicle -5.76476e-015 -2.06736e-014
rhumerus -22.9861 6.84977 -76.9924
rradius 40.043
rwrist 7.70794
rhand -11.2379 -29.0402
rfingers 7.12502
rthumb 14.7913 -58.4923
lclavicle -5.76476e-015 -2.06736e-014
lhumerus 29.3764 -22.6065 38.5807
lradius 75.8838
lwrist -17.4622
lhand -13.6005 21.0091
lfingers 7.12502
lthumb 12.5143 50.6144
rfemur -5.10319 -5.70646 26.2886
rtibia 44.9339
rfoot -4.33478 -16.1516
rtoes -4.4097
lfemur -23.234 -1.98985 -12.909
ltibia 19.6398
lfoot -2.29935 1.91736
ltoes -4.75274
731
root -43.7692 17.7405 2.88813 117.008 -83.8652 -113.58
lowerback -3.01135 0.936843 3.63842
upperback -4.59353 1.12343 4.0351
thorax -3.05749 0.440353 2.13237
lowerneck -14.3447 -6.13253 -9.48145
upperneck 16.5801 -7.86721 7.43774
head 8.17748 -3.6855 3.1118
rclavicle 7.05686e-015 -5.32743e-014
rhumerus -23.3176 6.37263 -77.0867
rradius 39.2343
rwrist 8.08711
rhand -11.0218 -29.0424
rfingers 7.12502
rthumb 14.9995 -58.4791
lclavicle 7.05686e-015 -5.32743e-014
lhumerus 30.492 -21.5217 38.6649
lradius 75.5818
lwrist -18.0334
lhand -13.8698 20.8456
lfingers 7.12502
lthumb 12.2546 50.4666
rfemur -5.59673 -6.03804 25.8159
rtibia 46.2467
rfoot -3.47583 -16.4151
rtoes -3.69112
lfemur -22.6896 -1.99764 -13.3877
ltibia 19.9599
lfoot -2.39938 1.63662
ltoes -4.25983
732
root -43.918 17.745 2.90457 116.584 -84.1185 -113.373
lowerback -2.97351 0.900146 3.3978
upperback -4.56208 1.08138 4.00854
thorax -3.04873 0.428737 2.23846
lowerneck -14.2317 -6.2757 -9.69183
upperneck 16.6988 -8.09393 7.68261
head 8.23762 -3.78811 3.2015
rclavicle 1.37161e-014 3.33958e-014
rhumerus -23.637 5.86686 -77.174
rradius 38.4103
rwrist 8.49034
rhand -10.805 -29.0377
rfingers 7.12502
rthumb 15.2084 -58.4588
lclavicle 1.37161e-014 3.33958e-014
lhumerus 31.6267 -20.6119 38.8284
lradius 75.2535
lwrist -18.6224
lhand -14.1331 20.675
lfingers 7.12502
lthumb 12.0007 50.311
rfemur -6.12251 -6.3748 25.3461
rtibia 47.5345
rfoot -2.64642 -16.6886
rtoes -2.92857
lfemur -22.1218 -2.01489 -13.8666
ltibia 20.2537
lfoot -2.51809 1.36259
ltoes -3.77569
733
root -44.0657 17.7501 2.92093 115.969 -84.3807 -112.977
lowerback -2.93315 0.856643 3.15085
upperback -4.529 1.03033 3.98126
thorax -3.03941 0.412792 2.34742
lowerneck -14.1183 -6.41319 -9.89853
upperneck 16.8076 -8.31293 7.92149
head 8.29442 -3.88742 3.28959
rclavicle 1.33186e-014 -2.8625e-014
rhumerus -23.949 5.33547 -77.2545
rradius 37.5755
rwrist 8.91725
rhand -10.5947 -29.0191
rfingers 7.12502
rthumb 15.4109 -58.4246
lclavicle 1.33186e-014 -2.8625e-014
lhumerus 32.7772 -19.8835 39.0636
lradius 74.9021
lwrist -19.241
lhand -14.4211 20.4802
lfingers 7.12502
lthumb 11.7231 50.1322
rfemur -6.68086 -6.71477 24.8815
rtibia 48.7918
rfoot -1.85896 -16.9716
rtoes -2.1279
lfemur -21.533 -2.04255 -14.3434
ltibia 20.5167
lfoot -2.65576 1.09685
ltoes -3.30258
734
root -44.2121 17.7558 2.93719 115.102 -84.6492 -112.325
lowerback -2.89155 0.806073 2.90131
upperback -4.49548 0.969777 3.95367
thorax -3.0299 0.392099 2.45763
lowerneck -14.0064 -6.5449 -10.0993
upperneck 16.91 -8.52365 8.15011
head 8.34887 -3.9834 3.37432
rclavicle -1.78906e-015 3.02153e-014
rhumerus -24.2553 4.77634 -77.327
rradius 36.7354
rwrist 9.37065
rhand -10.3902 -28.9857
rfingers 7.12502
rthumb 15.6079 -58.376
lclavicle -1.78906e-015 3.02153e-014
lhumerus 33.9452 -19.3433 39.359
lradius 74.5462
lwrist -19.863
lhand -14.7021 20.2879
lfingers 7.12502
lthumb 11.4521 49.9551
rfemur -7.26917 -7.05861 24.4267
rtibia 50.0089
rfoot -1.12004 -17.2621
rtoes -1.31168
lfemur -20.9259 -2.08087 -14.8146
ltibia 20.7478
lfoot -2.81547 0.835974
ltoes -2.8517
